<?xml version="1.0" standalone="no"?>
<!DOCTYPE svg PUBLIC "-//W3C//DTD SVG 20010904//EN"
 "http://www.w3.org/TR/2001/REC-SVG-20010904/DTD/svg10.dtd">
<svg version="1.0" xmlns="http://www.w3.org/2000/svg"
 width="300.000000pt" height="300.000000pt" viewBox="0 0 300.000000 300.000000"
 preserveAspectRatio="xMidYMid meet">

<g transform="translate(0.000000,300.000000) scale(0.100000,-0.100000)"
fill="#000000" stroke="none">
<path d="M1305 2991 c-22 -3 66 -6 195 -6 129 0 215 3 190 7 -55 8 -330 8
-385 -1z"/>
<path d="M1170 2968 c-25 -5 -49 -13 -53 -18 -7 -7 27 0 128 23 16 4 15 5 -5
5 -14 0 -45 -5 -70 -10z"/>
<path d="M1755 2973 c101 -23 135 -30 128 -23 -10 9 -106 31 -131 29 -13 -1
-12 -2 3 -6z"/>
<path d="M1428 2952 c-34 -4 -68 -46 -68 -84 0 -61 72 -96 144 -68 21 8 26 16
26 45 0 36 -1 36 -37 33 -39 -3 -60 -28 -23 -28 31 0 19 -24 -14 -28 -36 -4
-56 14 -56 49 0 19 8 34 25 45 23 15 27 15 51 -1 30 -20 56 -6 35 18 -13 17
-44 24 -83 19z"/>
<path d="M1276 2931 c-4 -5 -2 -28 3 -50 5 -23 6 -41 3 -41 -4 0 -25 19 -48
41 -43 42 -76 48 -69 12 3 -10 9 -44 15 -75 8 -41 16 -58 27 -58 12 0 14 8 9
45 -4 25 -3 45 1 45 5 0 24 -16 43 -35 34 -35 71 -47 69 -22 0 6 -6 41 -12 76
-12 61 -28 84 -41 62z"/>
<path d="M1016 2921 c-4 -5 3 -7 14 -4 23 6 26 13 6 13 -8 0 -17 -4 -20 -9z"/>
<path d="M1950 2926 c0 -2 9 -6 20 -9 11 -3 18 -1 14 4 -5 9 -34 13 -34 5z"/>
<path d="M1727 2854 c-39 -53 -45 -65 -32 -71 9 -3 23 1 31 9 22 22 73 11 84
-18 5 -13 17 -24 26 -24 17 0 17 7 -8 123 -14 68 -40 64 -101 -19z m73 -8 c0
-19 -4 -23 -20 -19 -23 6 -25 14 -8 31 18 18 28 14 28 -12z"/>
<path d="M834 2846 c-49 -24 -98 -52 -109 -61 -13 -11 -7 -9 16 4 21 12 75 39
120 61 46 21 79 39 73 39 -6 1 -51 -19 -100 -43z"/>
<path d="M2148 2846 c50 -25 107 -54 125 -66 l32 -22 -25 22 c-28 25 -161 94
-200 104 -14 4 17 -14 68 -38z"/>
<path d="M1932 2864 c-16 -8 -42 -58 -42 -83 0 -58 115 -109 147 -66 18 26 16
52 -4 58 -10 2 -26 8 -35 12 -13 5 -18 3 -18 -8 0 -8 7 -17 15 -21 22 -8 18
-26 -6 -26 -36 0 -59 19 -59 50 0 60 54 78 96 33 34 -37 55 -17 22 21 -23 27
-86 43 -116 30z"/>
<path d="M930 2825 c0 -9 7 -30 16 -46 8 -17 14 -32 12 -34 -2 -2 -25 10 -52
26 -44 28 -76 32 -76 11 0 -5 13 -39 30 -75 22 -49 34 -65 45 -61 19 8 19 7
-5 54 -24 46 -19 48 35 15 40 -25 70 -32 78 -17 8 13 -55 142 -69 142 -8 0
-14 -7 -14 -15z"/>
<path d="M2106 2756 c-41 -70 -33 -102 32 -135 15 -8 28 -9 41 -2 24 13 84
109 76 122 -13 20 -31 7 -58 -41 -30 -52 -54 -63 -78 -34 -11 13 -9 23 14 64
30 54 33 70 13 70 -8 0 -26 -20 -40 -44z"/>
<path d="M1285 2726 c-234 -45 -416 -128 -594 -271 -220 -178 -387 -463 -435
-744 -20 -120 -21 -322 -1 -437 88 -502 476 -900 985 -1010 119 -26 391 -26
510 0 502 109 878 487 980 985 35 174 23 463 -25 586 -16 43 -15 32 12 -80 23
-97 28 -363 9 -471 -45 -262 -158 -478 -349 -668 -257 -255 -579 -380 -937
-363 -329 16 -602 136 -830 366 -241 242 -360 531 -360 871 0 345 121 636 366
878 183 180 377 286 624 339 65 14 127 18 265 18 160 -1 191 -4 285 -27 363
-91 661 -329 827 -663 22 -44 46 -97 53 -118 6 -21 14 -36 17 -33 9 9 -37 115
-95 219 -162 293 -448 513 -778 598 -106 28 -138 32 -289 35 -114 2 -193 -1
-240 -10z"/>
<path d="M2345 2734 c6 -6 36 -30 68 -54 75 -56 211 -192 267 -267 53 -70 70
-88 45 -48 -63 102 -258 298 -356 358 -19 11 -29 16 -24 11z"/>
<path d="M553 2664 c-38 -32 -85 -73 -106 -93 -40 -37 -147 -165 -161 -191 -5
-8 5 1 20 20 95 115 194 213 294 292 19 15 32 28 28 28 -4 0 -38 -25 -75 -56z"/>
<path d="M703 2708 c-13 -18 15 -170 31 -165 6 2 12 15 14 28 4 32 50 61 75
48 10 -6 23 -6 34 -1 13 8 4 18 -53 56 -73 49 -86 53 -101 34z m72 -58 c3 -6
-1 -13 -10 -16 -19 -8 -20 -6 -30 24 -6 21 -5 23 13 13 12 -6 24 -16 27 -21z"/>
<path d="M2260 2644 c-37 -49 -46 -84 -22 -84 13 0 93 120 87 130 -12 19 -25
10 -65 -46z"/>
<path d="M1325 2684 c-91 -15 -211 -50 -309 -91 -275 -116 -499 -334 -626
-608 -41 -89 -91 -251 -89 -290 0 -11 7 7 15 40 34 142 105 308 177 415 203
301 555 506 902 527 l100 6 -29 -32 c-43 -46 -158 -122 -261 -174 -157 -78
-328 -130 -481 -145 l-69 -7 0 -810 c0 -902 -4 -844 68 -899 27 -21 418 -180
719 -293 l68 -25 342 147 c419 181 430 186 465 232 l28 36 5 805 5 806 49 -55
c135 -150 244 -376 276 -569 17 -104 20 -115 15 -45 -6 87 -38 201 -87 312
-122 279 -354 507 -634 626 -172 72 -250 88 -449 92 -93 2 -183 1 -200 -1z
m454 -35 c163 -41 330 -121 446 -212 72 -56 115 -95 115 -103 0 -4 -42 -4 -92
-1 -248 15 -500 123 -669 287 l-64 61 90 -5 c50 -3 128 -15 174 -27z m-201
-50 c108 -102 279 -200 422 -242 76 -22 223 -47 281 -47 l49 0 1 -92 c5 -296
3 -767 -3 -791 -4 -17 -51 -74 -110 -136 -206 -214 -291 -321 -344 -434 -28
-62 -30 -83 -7 -91 10 -4 105 -14 213 -22 241 -18 246 -19 218 -56 -12 -15
-23 -15 -118 -2 -58 7 -149 18 -202 24 -119 13 -129 10 -249 -91 -57 -46 -95
-71 -119 -75 -52 -8 -114 -31 -226 -86 l-102 -49 -43 17 c-65 25 -69 34 -16
34 51 0 104 22 155 65 37 31 92 55 127 55 75 0 216 114 269 218 30 60 32 84 9
108 -15 14 -31 16 -118 11 -85 -5 -236 -35 -310 -63 -14 -5 -8 6 18 33 32 33
54 45 129 68 50 15 120 30 157 32 60 5 72 2 126 -27 105 -55 131 -21 101 130
-18 87 -16 108 13 134 17 16 19 14 31 -46 27 -134 16 -132 102 -21 42 54 117
138 167 187 l91 89 -42 -7 c-24 -3 -102 -25 -174 -48 l-132 -42 -26 -54 c-67
-136 -240 -252 -375 -252 -35 0 -47 -10 -174 -137 -75 -76 -145 -150 -156
-164 -11 -14 -42 -75 -70 -135 -37 -81 -55 -108 -67 -106 -9 2 -51 18 -93 36
-42 19 -110 46 -151 62 -95 37 -135 75 -149 146 -13 62 -22 1153 -12 1407 l6
164 30 4 c163 21 370 85 524 163 101 51 223 134 247 169 8 12 20 21 26 21 6 0
40 -28 76 -61z"/>
<path d="M1588 1953 c7 -3 16 -2 19 1 4 3 -2 6 -13 5 -11 0 -14 -3 -6 -6z"/>
<path d="M1290 1920 c-8 -5 -10 -10 -5 -10 6 0 17 5 25 10 8 5 11 10 5 10 -5
0 -17 -5 -25 -10z"/>
<path d="M1700 1916 c14 -8 27 -12 29 -10 6 6 -1 11 -29 18 l-25 7 25 -15z"/>
<path d="M1383 1866 c-104 -34 -194 -114 -241 -214 -24 -50 -27 -70 -27 -157
0 -93 2 -105 32 -166 50 -101 123 -162 258 -214 24 -10 205 -14 205 -5 0 4 23
17 50 29 162 73 260 246 233 408 -23 133 -104 243 -218 298 -51 24 -75 29
-155 32 -61 2 -110 -2 -137 -11z m21 -78 c-4 -7 -18 -26 -30 -43 -12 -16 -29
-54 -38 -84 -9 -29 -24 -61 -35 -70 -29 -26 -65 -141 -43 -141 17 0 22 13 10
27 -8 11 -7 12 6 7 13 -5 15 -2 9 12 -7 18 -6 18 22 0 l29 -19 -22 28 c-27 34
-21 45 10 19 23 -19 23 -19 6 2 -22 26 -25 52 -4 35 12 -10 13 -8 9 11 -6 23
-6 23 15 -2 14 -18 17 -29 10 -37 -7 -9 -7 -13 0 -13 6 0 12 4 14 10 2 6 17 5
41 -2 46 -14 57 -4 57 54 0 20 6 39 13 42 6 3 -5 5 -26 3 -41 -3 -45 11 -7 30
20 10 26 9 35 -4 7 -9 17 -13 23 -9 17 10 15 24 -5 29 -11 3 -8 5 9 6 34 1 52
-31 63 -106 l7 -51 43 1 c24 1 38 5 32 9 -8 5 -5 14 12 30 20 20 23 20 17 4
-5 -14 -2 -17 9 -12 19 7 19 -8 0 -24 -8 -7 -15 -17 -15 -23 0 -6 11 0 25 13
30 28 34 13 5 -18 -12 -12 -17 -22 -12 -22 5 0 15 7 22 15 18 22 33 18 20 -5
-9 -17 -8 -19 7 -13 16 6 16 5 4 -10 -11 -14 -11 -17 0 -17 10 -1 9 -5 -4 -14
-10 -8 -16 -18 -15 -23 2 -5 -16 -28 -40 -52 -39 -39 -44 -41 -76 -33 l-33 10
15 -30 c8 -17 11 -33 6 -37 -5 -3 -9 -13 -9 -21 0 -17 -42 -21 -62 -6 -14 9
-16 2 -7 -31 7 -26 24 -31 24 -8 0 8 5 15 10 15 13 0 1 -82 -14 -92 -18 -13
-36 -9 -36 8 0 8 4 13 9 10 10 -7 4 26 -12 65 -9 22 -16 25 -43 22 -27 -3 -33
1 -38 21 -3 14 -2 36 4 51 14 37 15 37 -36 29 -34 -5 -45 -4 -40 5 4 6 1 11
-9 11 -9 0 -13 5 -10 10 3 6 -1 10 -10 10 -9 0 -14 4 -10 9 3 5 -4 13 -16 16
-12 4 -18 12 -15 21 7 18 -14 30 -24 13 -6 -8 6 -27 36 -56 24 -24 44 -46 44
-48 0 -3 -10 -5 -22 -5 -26 0 -106 52 -89 58 8 3 6 8 -5 16 -17 13 -30 71 -14
61 5 -3 3 7 -5 22 -8 15 -15 37 -15 48 0 18 2 18 21 -5 17 -21 19 -22 10 -3
-14 27 -14 90 -1 98 6 3 10 14 10 23 0 18 116 132 135 132 7 0 18 7 25 15 15
18 24 20 14 3z m236 -14 c8 -7 20 -14 25 -15 10 -2 52 -37 91 -78 53 -53 67
-117 39 -172 -18 -34 -30 -31 -38 8 -3 16 -17 42 -31 58 -15 17 -33 51 -40 77
-18 60 -32 86 -65 122 -25 28 -13 28 19 0z m176 -294 c-8 -16 -10 -30 -5 -30
13 0 2 -52 -13 -62 -7 -4 -8 -8 -3 -8 17 -1 -57 -60 -82 -66 -31 -8 -55 12
-27 23 23 9 44 28 44 42 0 5 8 12 18 15 12 4 19 16 19 34 0 30 56 118 61 96 2
-8 -3 -27 -12 -44z m-331 -318 c3 -29 1 -41 -5 -37 -6 4 -8 16 -4 27 4 14 2
18 -5 14 -7 -5 -11 4 -11 25 0 46 18 25 25 -29z"/>
<path d="M1619 1448 c4 -28 6 -29 9 -9 2 13 0 27 -5 32 -6 6 -7 -3 -4 -23z"/>
<path d="M1416 1453 c-12 -12 -6 -25 9 -19 8 3 15 1 15 -4 0 -5 7 -7 15 -3 15
5 12 18 -3 18 -4 0 -12 3 -18 7 -6 4 -14 5 -18 1z"/>
<path d="M1310 1431 c0 -5 5 -13 10 -16 6 -3 10 -2 10 4 0 5 -4 13 -10 16 -5
3 -10 2 -10 -4z"/>
<path d="M1696 1431 c-4 -7 -5 -15 -2 -18 9 -9 19 4 14 18 -4 11 -6 11 -12 0z"/>
<path d="M1340 1394 c0 -3 7 -12 15 -20 16 -17 18 -14 9 10 -6 15 -24 23 -24
10z"/>
<path d="M1620 1356 c0 -9 5 -16 10 -16 6 0 10 4 10 9 0 6 -4 13 -10 16 -5 3
-10 -1 -10 -9z"/>
<path d="M1159 1823 l-34 -38 38 34 c34 33 42 41 34 41 -2 0 -19 -17 -38 -37z"/>
<path d="M1800 1857 c0 -2 21 -25 46 -52 51 -53 49 -40 -3 19 -29 32 -43 43
-43 33z"/>
<path d="M1086 1736 c-36 -62 -33 -71 5 -12 16 27 28 50 26 53 -3 2 -16 -16
-31 -41z"/>
<path d="M1923 1691 c12 -27 23 -43 25 -36 3 11 -35 85 -43 85 -2 0 6 -22 18
-49z"/>
<path d="M2059 1613 c-13 -16 -12 -17 4 -4 16 13 21 21 13 21 -2 0 -10 -8 -17
-17z"/>
<path d="M2160 1585 c7 -9 15 -13 17 -11 7 7 -7 26 -19 26 -6 0 -6 -6 2 -15z"/>
<path d="M1961 1574 c0 -11 3 -14 6 -6 3 7 2 16 -1 19 -3 4 -6 -2 -5 -13z"/>
<path d="M1017 1525 c-4 -8 -2 -17 3 -20 6 -4 10 3 10 14 0 25 -6 27 -13 6z"/>
<path d="M1970 1480 c0 -16 2 -30 4 -30 2 0 6 14 8 30 3 17 1 30 -4 30 -4 0
-8 -13 -8 -30z"/>
<path d="M2126 1475 c-3 -8 -1 -15 4 -15 6 0 10 7 10 15 0 8 -2 15 -4 15 -2 0
-6 -7 -10 -15z"/>
<path d="M943 1432 c-10 -7 -10 -14 0 -35 15 -33 19 -33 33 -3 16 34 -4 56
-33 38z"/>
<path d="M1960 1414 c0 -8 5 -12 10 -9 6 4 8 11 5 16 -9 14 -15 11 -15 -7z"/>
<path d="M1060 1306 c0 -11 30 -66 36 -66 2 0 -3 15 -12 33 -19 36 -24 44 -24
33z"/>
<path d="M1100 1228 c0 -7 64 -74 103 -107 48 -43 29 -18 -38 48 -36 36 -65
62 -65 59z"/>
<path d="M1240 1095 c0 -7 81 -47 86 -43 2 3 -17 14 -41 26 -25 12 -45 20 -45
17z"/>
<path d="M1066 658 c-15 -23 -20 -35 -11 -28 15 13 50 70 42 70 -2 0 -16 -19
-31 -42z"/>
<path d="M987 575 c-15 -14 -24 -25 -19 -25 5 0 19 11 32 25 30 32 23 32 -13
0z"/>
<path d="M612 2648 c-6 -6 -8 -26 -5 -45 l6 -34 -43 3 c-61 4 -62 -17 -2 -32
28 -6 60 -22 73 -36 17 -18 25 -21 36 -13 10 9 8 17 -12 41 -18 22 -25 41 -25
73 0 46 -10 61 -28 43z"/>
<path d="M2333 2613 c-21 -27 -44 -55 -51 -64 -10 -14 -5 -22 35 -53 25 -20
50 -36 55 -36 17 0 7 21 -24 49 l-32 28 37 43 c20 24 37 49 37 56 0 30 -21 21
-57 -23z"/>
<path d="M449 2494 c-10 -12 -7 -29 18 -87 30 -72 61 -98 55 -46 -3 29 39 75
61 66 8 -3 20 -1 28 4 21 13 2 26 -78 53 -63 21 -73 23 -84 10z m70 -43 c7 -5
10 -14 7 -20 -11 -18 -33 -13 -39 9 -5 21 8 26 32 11z"/>
<path d="M2470 2486 c-30 -12 -63 -25 -74 -29 -25 -10 -3 -37 25 -30 30 8 60
-25 57 -61 -2 -21 2 -31 12 -33 21 -4 77 134 63 156 -14 22 -22 22 -83 -3z
m50 -33 c-1 -19 -18 -33 -33 -27 -20 7 -22 20 -4 27 19 8 37 8 37 0z"/>
<path d="M2570 2344 c-50 -37 -59 -48 -50 -59 11 -13 16 -12 38 6 23 18 27 18
35 4 5 -9 4 -29 -3 -51 -12 -36 -8 -64 9 -64 6 0 14 15 19 33 6 25 14 32 33
33 42 1 48 4 54 24 5 14 -4 37 -25 70 -18 28 -36 50 -40 50 -4 0 -36 -20 -70
-46z m92 -29 c17 -38 -3 -51 -31 -21 -13 14 -20 29 -16 35 11 19 35 12 47 -14z"/>
<path d="M349 2368 c-20 -17 -72 -88 -68 -92 16 -15 124 -86 130 -86 4 0 22
23 39 51 28 43 31 53 22 75 -7 14 -20 24 -32 24 -11 0 -29 9 -40 20 -23 23
-31 24 -51 8z m31 -46 c0 -25 -35 -58 -45 -42 -9 15 14 60 32 60 7 0 13 -8 13
-18z m60 -35 c0 -7 -7 -23 -16 -35 -13 -18 -19 -21 -30 -11 -19 15 -18 21 7
47 20 22 39 22 39 -1z"/>
<path d="M2771 2283 c7 -12 15 -20 18 -17 3 2 -3 12 -13 22 -17 16 -18 16 -5
-5z"/>
<path d="M215 2279 c-4 -6 -5 -12 -2 -15 2 -3 7 2 10 11 7 17 1 20 -8 4z"/>
<path d="M170 2199 c-12 -23 -20 -43 -18 -45 3 -2 14 17 26 41 27 56 20 60 -8
4z"/>
<path d="M2822 2195 c12 -24 23 -43 26 -41 4 5 -36 86 -43 86 -3 0 5 -20 17
-45z"/>
<path d="M122 2095 c-17 -37 -14 -45 4 -12 9 16 14 31 11 33 -2 2 -9 -7 -15
-21z"/>
<path d="M2861 2115 c0 -5 6 -21 14 -35 8 -14 14 -20 14 -15 0 6 -6 21 -14 35
-8 14 -14 21 -14 15z"/>
<path d="M30 1815 c-6 -31 -10 -59 -7 -61 2 -2 9 21 16 52 6 32 9 59 7 61 -2
3 -10 -21 -16 -52z"/>
<path d="M2957 1835 c9 -61 24 -99 17 -45 -4 25 -10 54 -15 65 -6 13 -6 6 -2
-20z"/>
<path d="M2842 1738 c-18 -18 -15 -36 7 -48 15 -7 23 -6 35 6 9 8 16 19 16 23
0 11 -23 31 -35 31 -6 0 -16 -5 -23 -12z"/>
<path d="M6 1678 c-8 -68 -7 -310 2 -368 4 -25 7 60 7 188 0 127 0 232 -1 232
-1 0 -4 -24 -8 -52z"/>
<path d="M2985 1500 c0 -129 3 -215 7 -190 3 25 7 110 7 190 0 80 -4 165 -7
190 -4 25 -7 -61 -7 -190z"/>
<path d="M102 1671 c-21 -13 -10 -46 16 -49 27 -4 40 22 22 43 -14 17 -20 18
-38 6z"/>
<path d="M286 1609 c-23 -223 18 -448 120 -652 64 -128 74 -144 165 -253 101
-121 219 -212 380 -293 124 -62 272 -112 326 -111 10 1 -23 12 -73 24 -561
146 -936 647 -910 1219 3 70 4 127 2 127 -2 0 -6 -28 -10 -61z"/>
<path d="M2704 1485 c0 -60 1 -84 3 -52 2 32 2 81 0 110 -2 29 -3 3 -3 -58z"/>
<path d="M2693 1335 c0 -22 2 -30 4 -17 2 12 2 30 0 40 -3 9 -5 -1 -4 -23z"/>
<path d="M2681 1274 c-2 -46 -54 -203 -96 -292 -120 -253 -310 -446 -559 -567
-198 -97 -365 -131 -596 -123 -103 4 -122 3 -80 -4 98 -17 312 -4 437 27 153
36 353 136 477 236 99 81 214 213 274 316 79 134 162 363 149 412 -3 11 -5 10
-6 -5z"/>
<path d="M2770 1245 c0 -8 12 -17 28 -21 67 -14 69 -20 13 -40 -53 -19 -81
-47 -60 -59 24 -16 133 -35 142 -26 13 13 0 31 -23 31 -24 0 -50 10 -50 19 0
5 18 14 40 21 79 26 79 58 -1 76 -71 17 -89 17 -89 -1z"/>
<path d="M26 1210 c4 -25 10 -54 15 -65 10 -24 0 48 -12 85 -6 16 -7 10 -3
-20z"/>
<path d="M2961 1194 c-6 -32 -9 -59 -7 -61 2 -3 10 21 16 52 6 31 10 59 7 61
-2 2 -9 -21 -16 -52z"/>
<path d="M150 1116 c-30 -12 -54 -26 -52 -32 1 -5 9 -30 18 -56 18 -55 41 -66
29 -15 -4 17 -8 38 -8 45 -1 7 21 21 51 31 60 21 67 25 57 40 -9 16 -33 13
-95 -13z"/>
<path d="M2790 1061 c-99 -8 -102 -24 -26 -106 44 -47 57 -57 65 -46 6 10 5
21 -4 35 -17 28 6 86 34 86 10 0 21 6 24 14 6 14 -1 28 -12 24 -3 -1 -40 -4
-81 -7z m10 -51 c0 -23 -22 -26 -39 -6 -10 11 -8 15 6 19 31 8 33 7 33 -13z"/>
<path d="M142 948 c3 -7 14 -14 25 -16 22 -3 58 -68 43 -77 -12 -8 -13 -42 -1
-49 4 -3 31 23 60 58 69 86 64 96 -46 96 -63 0 -84 -3 -81 -12z m128 -27 c0
-5 -7 -14 -16 -22 -13 -10 -17 -10 -25 2 -14 23 -11 29 16 29 14 0 25 -4 25
-9z"/>
<path d="M111 935 c0 -5 6 -21 14 -35 8 -14 14 -20 14 -15 0 6 -6 21 -14 35
-8 14 -14 21 -14 15z"/>
<path d="M2667 933 c-13 -13 -7 -20 33 -38 22 -10 40 -21 40 -25 0 -4 -23 -10
-52 -13 -45 -6 -90 -29 -77 -41 16 -15 132 -66 139 -61 18 11 11 21 -25 38
-44 21 -45 37 -2 38 101 3 113 36 28 79 -63 31 -73 34 -84 23z"/>
<path d="M2872 915 c-17 -37 -14 -45 4 -12 9 16 14 31 11 33 -2 2 -9 -7 -15
-21z"/>
<path d="M289 821 c-31 -20 -58 -40 -59 -44 -1 -5 12 -31 29 -59 23 -36 35
-48 43 -40 7 7 4 19 -11 40 -11 17 -21 34 -21 39 0 4 20 21 45 36 53 34 59 41
42 54 -8 7 -29 -1 -68 -26z"/>
<path d="M151 845 c0 -5 11 -30 24 -55 13 -25 24 -40 24 -35 0 6 -11 30 -24
55 -13 25 -24 41 -24 35z"/>
<path d="M2822 805 c-30 -62 -27 -71 4 -12 14 27 24 51 22 53 -3 2 -14 -17
-26 -41z"/>
<path d="M2580 776 c0 -18 116 -90 130 -81 18 11 10 22 -45 59 -58 38 -85 45
-85 22z"/>
<path d="M210 731 c0 -6 4 -13 10 -16 6 -3 7 1 4 9 -7 18 -14 21 -14 7z"/>
<path d="M2771 717 c-13 -21 -12 -21 5 -5 10 10 16 20 13 22 -3 3 -11 -5 -18
-17z"/>
<path d="M2525 699 c-56 -68 -7 -117 64 -64 21 15 39 21 44 16 13 -13 -11 -51
-32 -51 -21 0 -44 -23 -34 -33 25 -26 103 33 103 77 0 51 -44 60 -96 20 -19
-15 -37 -24 -41 -21 -11 11 7 37 32 47 14 5 25 16 25 25 0 26 -37 17 -65 -16z"/>
<path d="M377 680 c-38 -10 -71 -21 -74 -23 -11 -11 10 -29 29 -24 27 7 63
-36 63 -75 0 -53 19 -40 54 37 28 62 32 77 21 90 -15 18 -7 18 -93 -5z m63
-26 c0 -3 -5 -14 -11 -25 -8 -16 -13 -18 -25 -8 -19 15 -18 27 4 32 27 7 32 7
32 1z"/>
<path d="M2690 599 c-55 -75 -198 -220 -276 -279 -71 -53 -89 -70 -49 -45 108
66 284 241 359 358 32 49 12 29 -34 -34z"/>
<path d="M286 620 c24 -48 190 -230 209 -230 5 0 -6 15 -27 33 -35 31 -104
107 -162 177 -15 19 -25 28 -20 20z"/>
<path d="M467 561 c-33 -61 -35 -69 -21 -83 15 -14 20 -14 57 8 23 13 45 24
50 24 4 0 -4 -22 -17 -49 -19 -36 -22 -51 -13 -60 17 -17 27 -14 90 24 32 19
60 35 63 35 3 0 -15 -26 -40 -59 -44 -56 -48 -71 -20 -71 12 0 94 98 94 112 0
2 -14 14 -30 26 l-30 23 -37 -25 c-20 -14 -39 -24 -41 -22 -2 2 6 23 18 46 20
39 20 44 5 59 -14 15 -19 14 -56 -7 -23 -13 -43 -21 -45 -19 -3 3 4 20 15 38
24 40 26 55 8 62 -9 3 -27 -19 -50 -62z"/>
<path d="M2412 567 c-18 -21 45 -172 64 -156 8 6 11 21 8 33 -7 28 34 67 66
64 16 -2 25 3 27 13 3 11 -12 20 -59 33 -35 10 -70 20 -79 23 -8 2 -21 -2 -27
-10z m78 -47 c0 -4 -6 -13 -14 -19 -11 -9 -15 -8 -20 5 -10 26 -7 32 14 27 11
-3 20 -9 20 -13z"/>
<path d="M2279 451 c-37 -38 -39 -82 -4 -116 36 -37 79 -33 121 9 38 38 42 60
18 87 -16 18 -18 18 -45 -2 -36 -25 -38 -43 -4 -35 18 5 25 2 25 -7 0 -18 -32
-47 -53 -47 -21 0 -57 38 -57 60 0 22 29 47 59 52 38 5 38 28 1 28 -22 0 -41
-9 -61 -29z"/>
<path d="M691 374 c-12 -15 -21 -36 -21 -48 0 -69 116 -126 149 -74 12 20 11
24 -15 45 -16 13 -32 23 -36 23 -12 0 -9 -25 4 -38 19 -19 -1 -28 -30 -11 -30
17 -39 48 -22 79 17 32 71 24 88 -12 7 -16 20 -28 28 -28 25 0 15 37 -17 64
-43 36 -100 36 -128 0z"/>
<path d="M2186 382 c-3 -4 4 -23 15 -40 29 -49 24 -53 -36 -26 -43 20 -59 23
-70 14 -11 -9 -8 -21 22 -73 45 -77 41 -73 55 -59 9 9 7 21 -11 52 -12 22 -20
40 -18 40 3 0 29 -11 57 -24 52 -24 80 -25 80 -2 -1 17 -64 119 -77 123 -6 2
-14 0 -17 -5z"/>
<path d="M555 337 c27 -25 63 -53 80 -62 30 -16 30 -16 5 2 -13 10 -49 37 -80
61 l-55 44 50 -45z"/>
<path d="M867 257 c-31 -29 -57 -56 -57 -60 0 -5 18 -6 39 -2 47 8 78 -6 83
-37 2 -13 11 -24 21 -26 15 -3 17 6 17 75 0 76 -9 104 -34 103 -6 -1 -37 -24
-69 -53z m61 -32 c-2 -10 -7 -12 -17 -5 -13 7 -13 11 -1 25 15 18 24 8 18 -20z"/>
<path d="M1985 279 c-4 -6 -9 -47 -13 -91 -4 -66 -3 -80 9 -76 8 2 20 16 27
30 15 31 65 46 88 27 12 -10 17 -10 27 0 9 10 0 24 -46 67 -57 53 -80 64 -92
43z m56 -55 c10 -13 10 -17 -2 -25 -23 -14 -29 -11 -29 16 0 29 12 32 31 9z"/>
<path d="M1035 248 c-27 -74 -42 -127 -38 -132 16 -15 31 -2 42 35 14 47 22
43 40 -18 12 -44 47 -76 56 -51 37 101 44 132 33 139 -16 10 -23 3 -38 -44
-14 -46 -19 -42 -40 26 -15 51 -44 75 -55 45z"/>
<path d="M1857 235 c-26 -6 -50 -15 -53 -18 -11 -11 32 -142 47 -142 9 0 14
11 14 29 1 24 7 32 31 42 40 17 57 38 49 64 -10 32 -35 39 -88 25z m53 -40 c0
-22 -42 -36 -59 -20 -19 18 -5 35 30 35 19 0 29 -5 29 -15z"/>
<path d="M720 220 c28 -25 161 -94 200 -104 14 -4 -17 14 -68 38 -50 25 -107
54 -125 66 l-32 22 25 -22z"/>
<path d="M2275 223 c-11 -8 -65 -38 -120 -65 -55 -27 -89 -46 -75 -42 37 10
171 79 200 103 29 24 25 28 -5 4z"/>
<path d="M1320 146 c0 -24 -3 -58 -6 -75 -6 -27 -4 -31 15 -31 18 0 21 6 21
40 0 22 3 40 8 40 4 0 19 -20 34 -45 31 -50 68 -63 68 -22 0 12 3 46 7 76 5
48 4 53 -13 49 -14 -2 -20 -14 -24 -48 l-5 -45 -34 53 c-43 68 -71 71 -71 8z"/>
<path d="M1540 183 c-34 -12 -50 -37 -50 -75 0 -51 27 -78 80 -78 63 0 90 17
90 57 0 33 -1 34 -37 31 -39 -3 -60 -28 -24 -28 27 0 27 -16 0 -31 -50 -26
-101 40 -64 81 20 22 46 25 77 9 31 -17 45 5 17 25 -23 16 -60 20 -89 9z"/>
<path d="M2020 100 c-8 -5 -10 -10 -5 -10 6 0 17 5 25 10 8 5 11 10 5 10 -5 0
-17 -5 -25 -10z"/>
<path d="M1018 78 c5 -5 16 -8 23 -6 8 3 3 7 -10 11 -17 4 -21 3 -13 -5z"/>
<path d="M1965 80 c-16 -7 -17 -9 -3 -9 9 -1 20 4 23 9 7 11 7 11 -20 0z"/>
<path d="M1810 40 c-41 -10 -67 -19 -58 -19 27 -2 122 20 133 30 5 5 7 8 5 8
-3 -1 -39 -10 -80 -19z"/>
<path d="M1165 35 c28 -7 61 -13 75 -13 14 0 -2 6 -35 14 -76 17 -107 16 -40
-1z"/>
<path d="M1283 13 c9 -2 25 -2 35 0 9 3 1 5 -18 5 -19 0 -27 -2 -17 -5z"/>
<path d="M1500 10 l-165 -6 155 -1 c85 -1 175 2 200 6 52 10 61 10 -190 1z"/>
</g>
</svg>
